{
  "asset": {
    "version": "2.0",
    "generator": "THREE.GLTFExporter"
  },
  "scenes": [
    {
      "nodes": [
        3
      ]
    }
  ],
  "scene": 0,
  "nodes": [
    {
      "matrix": [
        1,
        0,
        0,
        0,
        0,
        1,
        0,
        0,
        0,
        0,
        1,
        0,
        -85.64602661132812,
        40.49385070800781,
        7.5,
        1
      ],
      "name": "mesh_id66",
      "mesh": 0
    },
    {
      "matrix": [
        1,
        0,
        0,
        0,
        0,
        1,
        0,
        0,
        0,
        0,
        1,
        0,
        -72.64602661132812,
        -126.50614929199219,
        7.5,
        1
      ],
      "name": "mesh_id67",
      "mesh": 1
    },
    {
      "matrix": [
        0.0010000000474974513,
        1.4210855390181384e-17,
        -5.680789596711257e-26,
        0,
        -1.4210855390181384e-17,
        0.0010000000474974513,
        -7.99500059716219e-12,
        0,
        -5.680789596711257e-26,
        7.99500059716219e-12,
        0.0010000000474974513,
        0,
        -0.06743926554918289,
        0.08406218141317368,
        0.207087904214859,
        1
      ],
      "name": "node_id63",
      "children": [
        0,
        1
      ]
    },
    {
      "name": "root",
      "children": [
        2
      ]
    }
  ],
  "bufferViews": [
    {
      "buffer": 0,
      "byteOffset": 0,
      "byteLength": 2328,
      "target": 34962,
      "byteStride": 12
    },
    {
      "buffer": 0,
      "byteOffset": 2328,
      "byteLength": 2328,
      "target": 34962,
      "byteStride": 12
    },
    {
      "buffer": 0,
      "byteOffset": 4656,
      "byteLength": 864,
      "target": 34963
    },
    {
      "buffer": 0,
      "byteOffset": 5520,
      "byteLength": 6768,
      "target": 34962,
      "byteStride": 12
    },
    {
      "buffer": 0,
      "byteOffset": 12288,
      "byteLength": 6768,
      "target": 34962,
      "byteStride": 12
    },
    {
      "buffer": 0,
      "byteOffset": 19056,
      "byteLength": 3240,
      "target": 34963
    }
  ],
  "buffers": [
    {
      "byteLength": 22296,
      "uri": "data:application/octet-stream;base64,"
    }
  ],
  "accessors": [
    {
      "bufferView": 0,
      "componentType": 5126,
      "count": 194,
      "max": [
        170.68161010742188,
        87.53842163085938,
        0
      ],
      "min": [
        0.6104492545127869,
        0,
        -15
      ],
      "type": "VEC3"
    },
    {
      "bufferView": 1,
      "componentType": 5126,
      "count": 194,
      "max": [
        1,
        1,
        1
      ],
      "min": [
        -1,
        -1,
        -1
      ],
      "type": "VEC3"
    },
    {
      "bufferView": 2,
      "componentType": 5123,
      "count": 432,
      "max": [
        193
      ],
      "min": [
        0
      ],
      "type": "SCALAR"
    },
    {
      "bufferView": 3,
      "componentType": 5126,
      "count": 564,
      "max": [
        138.26675415039062,
        89.49185943603516,
        0
      ],
      "min": [
        12.941523551940918,
        -1.526123046875,
        -15
      ],
      "type": "VEC3"
    },
    {
      "bufferView": 4,
      "componentType": 5126,
      "count": 564,
      "max": [
        1,
        1,
        1
      ],
      "min": [
        -1,
        -1,
        -1
      ],
      "type": "VEC3"
    },
    {
      "bufferView": 5,
      "componentType": 5123,
      "count": 1620,
      "max": [
        563
      ],
      "min": [
        0
      ],
      "type": "SCALAR"
    }
  ],
  "materials": [],
  "meshes": [
    {
      "primitives": [
        {
          "mode": 4,
          "attributes": {
            "POSITION": 0,
            "NORMAL": 1
          },
          "indices": 2
        }
      ]
    },
    {
      "primitives": [
        {
          "mode": 4,
          "attributes": {
            "POSITION": 3,
            "NORMAL": 4
          },
          "indices": 5
        }
      ]
    }
  ]
}
